# xmcd CD database file
#
# Track frame offsets:
#	150
#	14005
#	35297
#	75765
#	107570
#	185550
#
# Disc length: 3003 seconds
#
# Revision: 0
# Processed by: cddbd v1.5.2PL0 Copyright (c) Steve Scherf et al.
# Submitted via: CDex 1.70beta2
#
DISCID=3b0bb906
DTITLE=Wynton Marsalis Septet - Citi Movement [CD2]
DYEAR=1993
DGENRE=Jazz
TTITLE0=The End
TTITLE1=The legend of Buddy Bolden
TTITLE2=Swingdown, Swingtown
TTITLE3=Highrise riff (1, 2, 3, 4)
TTITLE4=Modern Vistas (as far as the eye can see_
TTITLE5=Curtain call
EXTD=YEAR: 1993
EXTT0=
EXTT1=
EXTT2=
EXTT3=
EXTT4=
EXTT5=
PLAYORDER=
